<svg width="44" height="44" viewBox="0 0 44 44" fill="none" xmlns="http://www.w3.org/2000/svg">
<circle cx="22" cy="22" r="22" fill="#121214"/>
<g clip-path="url(#clip0_101_533)">
<path d="M27.2902 15.71C27.1977 15.6173 27.0878 15.5437 26.9668 15.4935C26.8459 15.4434 26.7162 15.4175 26.5852 15.4175C26.4543 15.4175 26.3246 15.4434 26.2036 15.4935C26.0826 15.5437 25.9727 15.6173 25.8802 15.71L22.0002 19.58L18.1102 15.7C18.0176 15.6074 17.9077 15.534 17.7868 15.4839C17.6658 15.4337 17.5362 15.408 17.4052 15.408C17.2743 15.408 17.1446 15.4337 17.0237 15.4839C16.9027 15.534 16.7928 15.6074 16.7002 15.7C16.6076 15.7926 16.5342 15.9025 16.4841 16.0234C16.434 16.1444 16.4082 16.274 16.4082 16.405C16.4082 16.5359 16.434 16.6656 16.4841 16.7865C16.5342 16.9075 16.6076 17.0174 16.7002 17.11L21.2902 21.7C21.6802 22.09 22.3102 22.09 22.7002 21.7L27.2902 17.11C27.3829 17.0185 27.4564 16.9095 27.5066 16.7893C27.5568 16.6691 27.5827 16.5402 27.5827 16.41C27.5827 16.2798 27.5568 16.1508 27.5066 16.0307C27.4564 15.9105 27.3829 15.8015 27.2902 15.71Z" fill="white"/>
<path d="M27.29 22.3001C27.1975 22.2074 27.0876 22.1338 26.9666 22.0836C26.8456 22.0335 26.716 22.0076 26.585 22.0076C26.454 22.0076 26.3243 22.0335 26.2034 22.0836C26.0824 22.1338 25.9725 22.2074 25.88 22.3001L22 26.1701L18.12 22.2901C17.933 22.1031 17.6794 21.998 17.415 21.998C17.1506 21.998 16.897 22.1031 16.71 22.2901C16.523 22.477 16.418 22.7306 16.418 22.9951C16.418 23.2595 16.523 23.5131 16.71 23.7001L21.3 28.2901C21.69 28.6801 22.32 28.6801 22.71 28.2901L27.3 23.7001C27.4836 23.5127 27.5856 23.2603 27.5837 22.998C27.5818 22.7357 27.4762 22.4848 27.29 22.3001Z" fill="white"/>
</g>
<defs>
<clipPath id="clip0_101_533">
<rect width="24" height="24" fill="white" transform="translate(10 10)"/>
</clipPath>
</defs>
</svg>
