<svg width="37" height="37" viewBox="0 0 37 37" fill="none" xmlns="http://www.w3.org/2000/svg">
<rect x="0.978271" y="1" width="35" height="35" rx="7.5" fill="#F0F0F0"/>
<path d="M18.4783 8.5C17.1651 8.5 15.8647 8.75866 14.6514 9.2612C13.4382 9.76375 12.3358 10.5003 11.4072 11.4289C9.53184 13.3043 8.47827 15.8478 8.47827 18.5C8.47827 22.92 11.3483 26.67 15.3183 28C15.8183 28.08 15.9783 27.77 15.9783 27.5V25.81C13.2083 26.41 12.6183 24.47 12.6183 24.47C12.1583 23.31 11.5083 23 11.5083 23C10.5983 22.38 11.5783 22.4 11.5783 22.4C12.5783 22.47 13.1083 23.43 13.1083 23.43C13.9783 24.95 15.4483 24.5 16.0183 24.26C16.1083 23.61 16.3683 23.17 16.6483 22.92C14.4283 22.67 12.0983 21.81 12.0983 18C12.0983 16.89 12.4783 16 13.1283 15.29C13.0283 15.04 12.6783 14 13.2283 12.65C13.2283 12.65 14.0683 12.38 15.9783 13.67C16.7683 13.45 17.6283 13.34 18.4783 13.34C19.3283 13.34 20.1883 13.45 20.9783 13.67C22.8883 12.38 23.7283 12.65 23.7283 12.65C24.2783 14 23.9283 15.04 23.8283 15.29C24.4783 16 24.8583 16.89 24.8583 18C24.8583 21.82 22.5183 22.66 20.2883 22.91C20.6483 23.22 20.9783 23.83 20.9783 24.76V27.5C20.9783 27.77 21.1383 28.09 21.6483 28C25.6183 26.66 28.4783 22.92 28.4783 18.5C28.4783 17.1868 28.2196 15.8864 27.7171 14.6732C27.2145 13.4599 26.4779 12.3575 25.5493 11.4289C24.6208 10.5003 23.5184 9.76375 22.3051 9.2612C21.0919 8.75866 19.7915 8.5 18.4783 8.5Z" fill="black"/>
<rect x="0.978271" y="1" width="35" height="35" rx="7.5" stroke="#ECECEC"/>
</svg>
