<svg width="25" height="25" viewBox="0 0 25 25" fill="none" xmlns="http://www.w3.org/2000/svg">
<path d="M3.25 7.92499C3.25 7.37271 3.69772 6.92499 4.25 6.92499H20.25C20.8023 6.92499 21.25 7.37271 21.25 7.92499C21.25 8.47728 20.8023 8.92499 20.25 8.92499H4.25C3.69772 8.92499 3.25 8.47728 3.25 7.92499Z" fill="#121214"/>
<path d="M4.25 11.925C3.69772 11.925 3.25 12.3727 3.25 12.925C3.25 13.4772 3.69772 13.925 4.25 13.925H20.25C20.8023 13.925 21.25 13.4772 21.25 12.925C21.25 12.3727 20.8023 11.925 20.25 11.925H4.25Z" fill="#121214"/>
<path d="M3.25 17.925C3.25 17.3727 3.69772 16.925 4.25 16.925H20.25C20.8023 16.925 21.25 17.3727 21.25 17.925C21.25 18.4773 20.8023 18.925 20.25 18.925H4.25C3.69772 18.925 3.25 18.4773 3.25 17.925Z" fill="#121214"/>
</svg>
