<svg width="41" height="41" viewBox="0 0 41 41" fill="none" xmlns="http://www.w3.org/2000/svg">
<circle cx="20.0458" cy="20.0458" r="19.6603" fill="url(#paint0_radial_101_790)" stroke="#38383C" stroke-width="0.77099"/>
<path d="M25.6835 20.9132V23.5152C25.6835 25.3317 25.085 26.551 25.059 26.6002C25.0347 26.6529 25 26.7002 24.957 26.7393C24.9141 26.7784 24.8637 26.8084 24.8089 26.8277C24.7541 26.8469 24.696 26.8549 24.638 26.8513C24.58 26.8476 24.5234 26.8324 24.4714 26.8064C24.4195 26.7805 24.3733 26.7443 24.3355 26.7002C24.2978 26.656 24.2693 26.6047 24.2518 26.5494C24.2343 26.494 24.228 26.4357 24.2335 26.3779C24.2389 26.32 24.2559 26.2639 24.2834 26.2128C24.2885 26.2026 24.8162 25.1148 24.8162 23.5152V20.9132C24.8162 20.6448 24.7095 20.3874 24.5198 20.1976C24.33 20.0078 24.0726 19.9012 23.8042 19.9012C23.5358 19.9012 23.2785 20.0078 23.0887 20.1976C22.8989 20.3874 22.7923 20.6448 22.7923 20.9132V21.2023C22.7923 21.3173 22.7466 21.4276 22.6653 21.5089C22.584 21.5903 22.4736 21.636 22.3586 21.636C22.2436 21.636 22.1333 21.5903 22.052 21.5089C21.9706 21.4276 21.9249 21.3173 21.9249 21.2023V19.7567C21.9249 19.4883 21.8183 19.2309 21.6286 19.0411C21.4388 18.8514 21.1814 18.7447 20.913 18.7447C20.6446 18.7447 20.3872 18.8514 20.1975 19.0411C20.0077 19.2309 19.9011 19.4883 19.9011 19.7567V20.624C19.9011 20.7391 19.8554 20.8494 19.7741 20.9307C19.6927 21.012 19.5824 21.0577 19.4674 21.0577C19.3524 21.0577 19.2421 21.012 19.1607 20.9307C19.0794 20.8494 19.0337 20.7391 19.0337 20.624V15.709C19.0337 15.4406 18.9271 15.1832 18.7373 14.9934C18.5476 14.8037 18.2902 14.697 18.0218 14.697C17.7534 14.697 17.496 14.8037 17.3063 14.9934C17.1165 15.1832 17.0099 15.4406 17.0099 15.709V23.5152C17.0098 23.6094 16.979 23.701 16.9223 23.7761C16.8656 23.8512 16.7859 23.9059 16.6954 23.9317C16.6049 23.9576 16.5084 23.9533 16.4205 23.9195C16.3326 23.8857 16.2581 23.8242 16.2083 23.7444L14.8581 21.576C14.8553 21.5721 14.8529 21.568 14.8509 21.5637C14.7167 21.3312 14.4956 21.1616 14.2364 21.0922C13.9772 21.0227 13.7009 21.0591 13.4685 21.1932C13.2361 21.3274 13.0665 21.5485 12.997 21.8077C12.9275 22.0669 12.9639 22.3432 13.0981 22.5756L15.2152 26.1896C15.2484 26.2389 15.2711 26.2945 15.282 26.353C15.2928 26.4114 15.2915 26.4714 15.2782 26.5294C15.2649 26.5873 15.2398 26.6419 15.2044 26.6897C15.1691 26.7375 15.1244 26.7776 15.0729 26.8074C15.0215 26.8371 14.9645 26.856 14.9054 26.8629C14.8464 26.8697 14.7865 26.8643 14.7297 26.8471C14.6728 26.8298 14.62 26.801 14.5747 26.7625C14.5294 26.7241 14.4925 26.6767 14.4663 26.6233L12.3471 23.0093C12.0966 22.578 12.0278 22.0648 12.1557 21.5827C12.2835 21.1006 12.5977 20.6891 13.029 20.4386C13.4604 20.1882 13.9735 20.1193 14.4556 20.2472C14.9377 20.3751 15.3492 20.6893 15.5997 21.1206L16.1425 21.9974V15.709C16.1425 15.2105 16.3405 14.7325 16.6929 14.3801C17.0454 14.0277 17.5234 13.8297 18.0218 13.8297C18.5202 13.8297 18.9982 14.0277 19.3507 14.3801C19.7031 14.7325 19.9011 15.2105 19.9011 15.709V18.1737C20.1564 18.0104 20.4475 17.9112 20.7495 17.8847C21.0515 17.8582 21.3554 17.9052 21.6353 18.0215C21.9152 18.1379 22.1628 18.3203 22.357 18.5531C22.5511 18.7859 22.6861 19.0622 22.7504 19.3584C23.0329 19.1671 23.3622 19.0562 23.7029 19.0378C24.0436 19.0194 24.3829 19.0942 24.6844 19.254C24.9858 19.4138 25.2381 19.6526 25.4142 19.9449C25.5902 20.2372 25.6833 20.5719 25.6835 20.9132ZM28.1411 14.4079H23.9835L25.5563 12.8351C25.6365 12.7535 25.6812 12.6435 25.6807 12.5291C25.6801 12.4147 25.6344 12.3051 25.5535 12.2243C25.4725 12.1434 25.3629 12.0978 25.2485 12.0974C25.1341 12.097 25.0242 12.1419 24.9426 12.2222L22.6297 14.5351C22.5485 14.6165 22.5028 14.7267 22.5028 14.8416C22.5028 14.9565 22.5485 15.0668 22.6297 15.1481L24.9426 17.461C25.0242 17.5413 25.1341 17.5862 25.2485 17.5858C25.3629 17.5854 25.4725 17.5398 25.5535 17.4589C25.6344 17.3781 25.6801 17.2685 25.6807 17.1541C25.6812 17.0397 25.6365 16.9297 25.5563 16.8481L23.9835 15.2753H28.1411C28.2561 15.2753 28.3664 15.2296 28.4477 15.1483C28.529 15.0669 28.5747 14.9566 28.5747 14.8416C28.5747 14.7266 28.529 14.6163 28.4477 14.5349C28.3664 14.4536 28.2561 14.4079 28.1411 14.4079Z" fill="#F2F2F2"/>
<defs>
<radialGradient id="paint0_radial_101_790" cx="0" cy="0" r="1" gradientUnits="userSpaceOnUse" gradientTransform="translate(20.0458 20.0458) rotate(90) scale(75.5571)">
<stop offset="0.177083" stop-color="#D9D9D9" stop-opacity="0"/>
<stop offset="1" stop-color="#D9D9D9"/>
</radialGradient>
</defs>
</svg>
