<svg width="37" height="37" viewBox="0 0 37 37" fill="none" xmlns="http://www.w3.org/2000/svg">
<rect x="0.978271" y="1" width="35" height="35" rx="7.5" fill="#F0F0F0"/>
<path d="M28.9382 12.5C28.1682 12.85 27.3382 13.08 26.4782 13.19C27.3582 12.66 28.0382 11.82 28.3582 10.81C27.5282 11.31 26.6082 11.66 25.6382 11.86C24.8482 11 23.7382 10.5 22.4782 10.5C20.1283 10.5 18.2082 12.42 18.2082 14.79C18.2082 15.13 18.2483 15.46 18.3182 15.77C14.7582 15.59 11.5882 13.88 9.47825 11.29C9.10825 11.92 8.89825 12.66 8.89825 13.44C8.89825 14.93 9.64825 16.25 10.8082 17C10.0982 17 9.43825 16.8 8.85825 16.5V16.53C8.85825 18.61 10.3382 20.35 12.2982 20.74C11.669 20.9122 11.0083 20.9362 10.3682 20.81C10.6399 21.6625 11.1718 22.4084 11.8893 22.9429C12.6067 23.4775 13.4737 23.7737 14.3682 23.79C12.8519 24.9904 10.9722 25.6393 9.03825 25.63C8.69825 25.63 8.35825 25.61 8.01825 25.57C9.91825 26.79 12.1782 27.5 14.5982 27.5C22.4782 27.5 26.8083 20.96 26.8083 15.29C26.8083 15.1 26.8082 14.92 26.7982 14.73C27.6382 14.13 28.3582 13.37 28.9382 12.5Z" fill="black"/>
<rect x="0.978271" y="1" width="35" height="35" rx="7.5" stroke="#ECECEC"/>
</svg>
