<svg width="32" height="32" viewBox="0 0 32 32" fill="none" xmlns="http://www.w3.org/2000/svg">
<path fill-rule="evenodd" clip-rule="evenodd" d="M21.3332 9.33333C21.3332 12.2789 18.9453 14.6667 15.9998 14.6667C13.0543 14.6667 10.6665 12.2789 10.6665 9.33333C10.6665 6.38781 13.0543 4 15.9998 4C18.9453 4 21.3332 6.38781 21.3332 9.33333ZM18.6665 9.33333C18.6665 10.8061 17.4726 12 15.9998 12C14.527 12 13.3332 10.8061 13.3332 9.33333C13.3332 7.86057 14.527 6.66667 15.9998 6.66667C17.4726 6.66667 18.6665 7.86057 18.6665 9.33333Z" fill="black"/>
<path fill-rule="evenodd" clip-rule="evenodd" d="M26.6668 22.8886C26.6668 22.3109 26.4858 21.743 26.1088 21.3052C23.6638 18.4649 20.0419 16.6665 16.0002 16.6665C11.9584 16.6665 8.33663 18.4649 5.89146 21.3052C5.51451 21.743 5.3335 22.3109 5.3335 22.8886V25.3332C5.3335 26.806 6.5274 27.9998 8.00016 27.9998H24.0002C25.473 27.9998 26.6668 26.806 26.6668 25.3332V22.8886ZM24.0002 22.9442C22.0419 20.7258 19.1851 19.3332 16.0002 19.3332C12.8153 19.3332 9.95846 20.7258 8.00016 22.9442V25.3332H24.0002V22.9442ZM8.00039 22.8828C8.00039 22.8828 8.0004 22.8828 8.00039 22.8829C8.00038 22.883 8.00036 22.8832 8.00032 22.8834C8.00035 22.8832 8.00038 22.8829 8.00039 22.8828Z" fill="black"/>
</svg>
